<svg id="svg" version="1.1" xmlns="http://www.w3.org/2000/svg" xmlns:xlink="http://www.w3.org/1999/xlink" width="400" height="400" viewBox="0, 0, 400,400"><g id="svgg"><path id="path0" d="M230.000 123.098 L 230.000 170.909 231.292 169.647 C 232.002 168.953,233.821 167.234,235.333 165.826 C 236.846 164.419,238.121 163.223,238.167 163.169 C 238.248 163.073,247.140 154.723,261.417 141.338 C 265.267 137.729,268.942 134.275,269.583 133.664 C 270.225 133.053,272.063 131.326,273.667 129.825 C 275.271 128.324,277.071 126.638,277.667 126.077 C 284.667 119.491,286.250 118.004,290.167 114.336 C 291.679 112.920,293.593 111.121,294.419 110.339 C 295.246 109.557,296.408 108.462,297.003 107.907 C 300.753 104.404,309.617 96.078,310.646 95.093 C 311.322 94.446,311.963 93.842,312.071 93.750 C 312.178 93.658,312.863 93.021,313.593 92.333 C 314.324 91.646,315.632 90.414,316.502 89.596 C 317.372 88.778,318.571 87.649,319.167 87.088 C 319.762 86.527,321.563 84.838,323.167 83.336 C 324.771 81.833,326.731 79.991,327.523 79.241 L 328.963 77.879 325.190 77.771 C 323.115 77.712,318.867 77.587,315.750 77.494 C 309.899 77.320,295.643 76.950,283.833 76.667 C 280.121 76.578,274.721 76.429,271.833 76.336 C 268.946 76.243,262.946 76.090,258.500 75.996 C 254.054 75.902,248.504 75.754,246.167 75.668 C 243.829 75.583,239.235 75.462,235.958 75.399 L 230.000 75.286 230.000 123.098 M220.417 82.102 C 219.408 83.192,218.542 84.121,218.492 84.167 C 218.442 84.212,217.019 85.750,215.330 87.583 C 213.641 89.417,211.801 91.404,211.241 92.000 C 210.681 92.596,208.729 94.696,206.903 96.667 C 205.077 98.638,202.233 101.705,200.583 103.484 C 198.933 105.263,197.021 107.330,196.333 108.077 C 195.646 108.825,193.278 111.382,191.072 113.760 C 187.027 118.120,181.410 124.185,174.181 131.999 C 172.019 134.336,169.650 136.886,168.917 137.666 C 167.666 138.996,166.317 140.452,158.418 149.000 C 156.681 150.879,154.838 152.867,154.322 153.417 C 153.805 153.967,151.858 156.067,149.994 158.083 C 148.131 160.100,145.733 162.688,144.666 163.833 C 143.600 164.979,141.724 167.004,140.498 168.333 C 139.271 169.662,137.843 171.200,137.324 171.750 C 136.805 172.300,135.343 173.875,134.074 175.250 L 131.767 177.750 176.994 177.792 C 201.869 177.815,222.247 177.809,222.278 177.778 C 222.309 177.747,222.315 155.762,222.292 128.922 L 222.250 80.121 220.417 82.102 M316.649 97.106 C 315.146 98.560,312.792 100.840,311.417 102.172 C 310.042 103.503,307.867 105.603,306.585 106.838 C 302.849 110.435,300.259 112.934,297.583 115.522 C 296.208 116.852,293.340 119.619,291.208 121.671 C 289.077 123.724,287.333 125.423,287.333 125.449 C 287.333 125.474,287.915 125.149,288.625 124.727 C 289.932 123.950,295.238 120.829,303.000 116.272 C 309.019 112.739,319.917 106.336,328.083 101.536 C 330.192 100.297,333.134 98.572,334.621 97.703 C 337.721 95.892,337.713 95.911,335.544 95.762 C 334.649 95.700,332.492 95.538,330.750 95.402 C 329.008 95.265,326.158 95.045,324.417 94.913 C 322.675 94.781,320.829 94.625,320.315 94.567 L 319.381 94.462 316.649 97.106 M69.528 106.780 C 68.856 107.497,66.872 109.546,65.119 111.333 C 63.365 113.121,60.390 116.159,58.507 118.085 C 56.624 120.010,53.322 123.385,51.169 125.585 L 47.256 129.583 58.988 129.626 C 65.440 129.650,70.746 129.643,70.778 129.611 C 70.810 129.579,70.816 124.136,70.793 117.515 L 70.750 105.476 69.528 106.780 M76.833 141.667 L 76.833 177.833 98.791 177.833 L 120.749 177.833 132.193 166.390 L 143.637 154.947 140.693 151.624 C 139.075 149.796,137.075 147.536,136.250 146.601 C 135.425 145.667,132.425 142.284,129.583 139.084 C 126.742 135.885,122.552 131.163,120.272 128.592 C 117.992 126.020,115.623 123.354,115.007 122.667 C 114.391 121.979,112.328 119.654,110.421 117.500 C 108.515 115.346,105.345 111.765,103.376 109.542 L 99.797 105.500 88.315 105.500 L 76.833 105.500 76.833 141.667 M82.109 184.375 C 82.482 184.765,84.159 186.583,85.836 188.417 C 87.512 190.250,89.572 192.500,90.412 193.417 C 96.711 200.290,109.484 214.239,112.917 217.994 C 115.208 220.501,117.200 222.672,117.342 222.818 C 117.485 222.964,118.799 224.396,120.263 226.000 C 121.728 227.604,125.845 232.104,129.413 236.000 C 132.981 239.896,136.724 243.983,137.731 245.083 C 142.499 250.294,148.878 257.253,150.306 258.799 C 151.177 259.742,152.008 260.651,152.153 260.817 C 152.298 260.984,153.098 261.862,153.931 262.768 C 154.764 263.675,157.195 266.329,159.334 268.667 C 161.473 271.004,163.913 273.667,164.755 274.583 C 165.598 275.500,168.896 279.100,172.085 282.583 C 175.274 286.067,178.565 289.658,179.400 290.565 C 180.234 291.471,181.082 292.405,181.284 292.640 C 181.567 292.969,181.672 293.012,181.740 292.825 C 182.116 291.800,185.106 283.743,186.160 280.917 C 186.877 278.992,188.218 275.392,189.138 272.917 C 190.059 270.442,191.458 266.692,192.248 264.583 C 193.037 262.475,194.422 258.762,195.325 256.333 C 196.228 253.904,197.653 250.079,198.490 247.833 C 199.328 245.588,200.753 241.762,201.656 239.333 C 202.560 236.904,203.987 233.079,204.828 230.833 C 205.668 228.588,206.983 225.063,207.750 223.000 C 208.516 220.938,209.941 217.112,210.916 214.500 C 211.891 211.887,213.441 207.725,214.362 205.250 C 215.283 202.775,216.624 199.175,217.343 197.250 C 221.233 186.832,222.203 184.223,222.284 183.958 C 222.368 183.681,218.939 183.667,151.901 183.667 L 81.431 183.667 82.109 184.375 M220.469 206.406 C 217.960 213.233,211.403 231.019,210.113 234.500 C 209.518 236.104,207.641 241.204,205.940 245.833 C 204.239 250.463,201.078 259.050,198.916 264.917 C 196.753 270.783,193.456 279.746,191.589 284.833 C 189.721 289.921,187.885 294.908,187.509 295.917 C 187.133 296.925,185.128 302.362,183.055 308.000 C 180.982 313.637,179.142 318.625,178.967 319.083 C 178.318 320.783,177.167 323.962,177.167 324.056 C 177.167 324.110,178.085 324.693,179.208 325.353 C 180.331 326.012,182.713 327.414,184.500 328.467 C 186.287 329.521,189.175 331.224,190.917 332.250 C 194.091 334.122,198.946 336.979,206.958 341.690 C 212.596 345.006,216.142 347.093,219.483 349.062 C 220.986 349.948,222.242 350.647,222.275 350.614 C 222.307 350.582,222.315 317.032,222.292 276.059 L 222.250 201.562 220.469 206.406 " stroke="none" fill="#fccc24" fill-rule="evenodd"></path><path id="path1" d="M0.000 200.000 L 0.000 400.000 200.000 400.000 L 400.000 400.000 400.000 200.000 L 400.000 0.000 200.000 0.000 L 0.000 0.000 0.000 200.000 M237.667 75.336 C 240.371 75.428,247.121 75.614,252.667 75.750 C 258.212 75.886,265.487 76.071,268.833 76.162 C 272.179 76.253,277.860 76.404,281.458 76.497 C 285.056 76.590,290.944 76.743,294.542 76.836 C 298.140 76.929,303.821 77.078,307.167 77.167 C 310.512 77.256,316.813 77.416,321.167 77.523 C 325.521 77.630,329.104 77.734,329.130 77.753 C 329.198 77.804,326.861 80.023,318.251 88.083 C 316.881 89.367,315.082 91.058,314.254 91.841 C 312.894 93.129,311.550 94.394,308.333 97.417 C 307.737 97.976,305.300 100.261,302.917 102.493 C 300.533 104.725,298.096 107.013,297.500 107.577 C 296.904 108.142,293.867 110.995,290.750 113.917 C 287.633 116.839,284.558 119.726,283.917 120.332 C 281.322 122.785,279.466 124.528,277.174 126.668 C 275.849 127.905,274.086 129.558,273.257 130.341 C 271.011 132.463,268.868 134.479,266.081 137.090 C 263.845 139.184,259.119 143.621,256.417 146.162 C 255.867 146.679,252.867 149.496,249.750 152.420 C 246.633 155.345,244.002 157.816,243.902 157.911 C 243.802 158.006,242.640 159.096,241.320 160.333 C 240.000 161.571,238.244 163.221,237.418 164.000 C 236.592 164.779,235.832 165.492,235.729 165.583 C 235.626 165.675,235.026 166.241,234.396 166.841 C 231.273 169.812,230.148 170.833,229.998 170.833 C 229.890 170.833,229.833 154.355,229.833 123.000 L 229.833 75.167 231.292 75.168 C 232.094 75.169,234.963 75.244,237.667 75.336 M222.444 177.778 C 222.414 177.809,201.975 177.815,177.026 177.792 L 131.664 177.750 132.115 177.250 C 132.934 176.344,140.489 168.184,143.748 164.686 C 144.207 164.193,144.661 163.705,144.755 163.603 C 147.341 160.794,151.102 156.729,151.172 156.667 C 151.223 156.621,152.647 155.083,154.337 153.250 C 156.026 151.417,157.866 149.429,158.427 148.833 C 158.987 148.237,161.009 146.063,162.919 144.000 C 164.830 141.938,167.186 139.395,168.155 138.350 C 169.124 137.305,169.993 136.367,170.086 136.266 C 170.179 136.166,171.638 134.583,173.327 132.750 C 175.017 130.917,176.859 128.929,177.421 128.333 C 178.734 126.940,181.928 123.499,186.005 119.083 C 190.190 114.551,193.384 111.105,193.497 111.000 C 193.547 110.954,194.970 109.417,196.659 107.583 C 198.348 105.750,200.192 103.763,200.757 103.167 C 201.321 102.571,202.783 100.996,204.006 99.667 C 206.702 96.736,210.623 92.502,213.658 89.245 C 214.259 88.600,216.475 86.209,218.583 83.931 L 222.417 79.790 222.459 128.756 C 222.482 155.687,222.475 177.747,222.444 177.778 M327.083 95.001 C 333.898 95.541,337.579 95.866,337.653 95.935 C 337.747 96.023,338.016 95.856,333.917 98.247 C 329.990 100.536,325.594 103.114,318.000 107.580 C 315.387 109.116,311.525 111.386,309.417 112.625 C 307.308 113.863,303.596 116.043,301.167 117.470 C 298.737 118.897,295.100 121.031,293.083 122.213 C 291.067 123.394,288.864 124.696,288.189 125.106 C 286.542 126.104,286.560 125.968,288.288 124.338 C 289.092 123.580,290.725 122.014,291.917 120.858 C 293.108 119.703,295.096 117.780,296.334 116.587 C 297.572 115.393,299.785 113.254,301.252 111.833 C 302.718 110.412,305.868 107.375,308.251 105.084 C 310.634 102.792,313.596 99.939,314.833 98.743 C 316.071 97.547,317.571 96.097,318.167 95.522 L 319.250 94.477 321.083 94.574 C 322.092 94.627,324.792 94.819,327.083 95.001 M70.833 117.500 L 70.833 129.667 58.969 129.667 L 47.105 129.667 48.673 128.042 C 49.535 127.148,51.742 124.879,53.578 123.000 C 66.564 109.709,69.681 106.510,70.181 105.958 C 70.493 105.615,70.767 105.333,70.791 105.333 C 70.814 105.333,70.833 110.808,70.833 117.500 M105.263 111.528 C 108.281 114.935,110.862 117.847,111.000 117.999 C 111.261 118.288,116.704 124.423,124.894 133.659 C 127.539 136.642,129.940 139.346,130.229 139.667 C 130.518 139.987,132.513 142.237,134.663 144.667 C 136.812 147.096,139.718 150.371,141.119 151.945 C 142.520 153.518,143.667 154.868,143.667 154.944 C 143.667 155.020,138.548 160.201,132.292 166.458 L 120.918 177.833 98.792 177.833 L 76.667 177.833 76.667 141.583 L 76.667 105.333 88.222 105.333 L 99.776 105.333 105.263 111.528 M222.499 183.625 C 222.499 183.694,222.270 184.350,221.991 185.083 C 221.711 185.817,220.855 188.104,220.088 190.167 C 219.322 192.229,217.897 196.054,216.923 198.667 C 215.948 201.279,214.523 205.104,213.756 207.167 C 212.988 209.229,211.562 213.054,210.587 215.667 C 209.611 218.279,208.186 222.104,207.420 224.167 C 206.653 226.229,205.227 230.054,204.251 232.667 C 203.276 235.279,201.850 239.104,201.083 241.167 C 200.317 243.229,198.892 247.054,197.917 249.667 C 196.942 252.279,195.515 256.104,194.747 258.167 C 193.979 260.229,192.595 263.942,191.672 266.417 C 190.749 268.892,189.325 272.717,188.506 274.917 C 187.688 277.117,186.332 280.754,185.494 283.000 C 184.655 285.246,183.488 288.386,182.899 289.978 C 182.311 291.570,181.792 292.932,181.747 293.006 C 181.643 293.173,181.752 293.288,172.412 283.083 C 169.224 279.600,166.196 276.295,165.683 275.739 C 165.170 275.183,164.069 273.983,163.238 273.072 C 161.752 271.446,152.768 261.640,151.100 259.825 C 150.633 259.316,149.569 258.153,148.736 257.241 C 144.796 252.927,139.349 246.975,138.449 246.000 C 137.018 244.450,136.410 243.788,133.248 240.333 C 131.695 238.637,130.115 236.912,129.736 236.500 C 128.272 234.905,122.869 229.003,121.429 227.426 C 120.597 226.514,119.499 225.314,118.989 224.759 C 117.191 222.802,107.798 212.553,103.325 207.667 C 102.527 206.796,97.253 201.039,91.604 194.874 C 85.955 188.709,81.333 183.628,81.333 183.583 C 81.333 183.537,113.096 183.500,151.917 183.500 C 190.738 183.500,222.500 183.556,222.499 183.625 M222.426 350.797 C 222.385 350.838,222.103 350.723,221.800 350.542 C 221.498 350.360,219.319 349.077,216.958 347.689 C 212.869 345.286,207.871 342.345,200.917 338.251 C 199.175 337.226,195.987 335.351,193.833 334.084 C 182.913 327.660,176.999 324.158,177.002 324.115 C 177.003 324.098,177.755 322.058,178.672 319.583 C 179.589 317.108,182.134 310.208,184.327 304.250 C 186.520 298.292,190.000 288.842,192.060 283.250 C 194.120 277.658,197.657 268.058,199.919 261.917 C 202.181 255.775,205.744 246.100,207.837 240.417 C 209.931 234.733,213.494 225.058,215.756 218.917 C 218.017 212.775,220.441 206.196,221.142 204.297 L 222.417 200.843 222.459 275.783 C 222.482 316.999,222.467 350.755,222.426 350.797 " stroke="none" fill="#fcfcfc" fill-rule="evenodd"></path><path id="path2" d="M230.208 75.282 C 230.369 75.323,230.631 75.323,230.792 75.282 C 230.952 75.240,230.821 75.205,230.500 75.205 C 230.179 75.205,230.048 75.240,230.208 75.282 M249.047 75.789 C 249.485 75.824,250.160 75.823,250.547 75.788 C 250.934 75.754,250.575 75.725,249.750 75.726 C 248.925 75.726,248.609 75.755,249.047 75.789 M255.295 75.954 C 255.594 75.991,256.044 75.990,256.295 75.952 C 256.545 75.914,256.300 75.884,255.750 75.885 C 255.200 75.886,254.995 75.917,255.295 75.954 M262.375 76.115 C 262.535 76.157,262.798 76.157,262.958 76.115 C 263.119 76.073,262.987 76.039,262.667 76.039 C 262.346 76.039,262.215 76.073,262.375 76.115 M269.708 76.282 C 269.869 76.323,270.131 76.323,270.292 76.282 C 270.452 76.240,270.321 76.205,270.000 76.205 C 269.679 76.205,269.548 76.240,269.708 76.282 M274.792 76.455 C 275.181 76.490,275.819 76.490,276.208 76.455 C 276.598 76.420,276.279 76.392,275.500 76.392 C 274.721 76.392,274.402 76.420,274.792 76.455 M281.042 76.619 C 281.294 76.658,281.706 76.658,281.958 76.619 C 282.210 76.581,282.004 76.550,281.500 76.550 C 280.996 76.550,280.790 76.581,281.042 76.619 M293.961 76.954 C 294.261 76.991,294.711 76.990,294.961 76.952 C 295.212 76.914,294.967 76.884,294.417 76.885 C 293.867 76.886,293.662 76.917,293.961 76.954 M300.292 77.121 C 300.590 77.158,301.077 77.158,301.375 77.121 C 301.673 77.084,301.429 77.053,300.833 77.053 C 300.237 77.053,299.994 77.084,300.292 77.121 M306.542 77.282 C 306.702 77.323,306.965 77.323,307.125 77.282 C 307.285 77.240,307.154 77.205,306.833 77.205 C 306.512 77.205,306.381 77.240,306.542 77.282 M313.875 77.448 C 314.035 77.490,314.298 77.490,314.458 77.448 C 314.619 77.406,314.487 77.372,314.167 77.372 C 313.846 77.372,313.715 77.406,313.875 77.448 M319.125 77.622 C 319.515 77.657,320.152 77.657,320.542 77.622 C 320.931 77.587,320.612 77.558,319.833 77.558 C 319.054 77.558,318.735 77.587,319.125 77.622 M325.295 77.787 C 325.594 77.825,326.044 77.824,326.295 77.786 C 326.545 77.748,326.300 77.717,325.750 77.718 C 325.200 77.719,324.995 77.750,325.295 77.787 M222.145 80.115 C 221.991 80.306,221.984 80.357,222.125 80.272 C 222.291 80.173,222.341 90.013,222.375 129.032 L 222.417 177.917 222.459 128.875 C 222.481 101.902,222.472 79.833,222.437 79.833 C 222.402 79.833,222.271 79.960,222.145 80.115 M325.240 81.375 L 324.750 81.917 325.292 81.427 C 325.590 81.158,325.833 80.914,325.833 80.885 C 325.833 80.757,325.696 80.870,325.240 81.375 M322.573 83.875 L 322.083 84.417 322.625 83.927 C 323.130 83.471,323.243 83.333,323.115 83.333 C 323.086 83.333,322.842 83.577,322.573 83.875 M322.375 94.782 C 322.535 94.823,322.798 94.823,322.958 94.782 C 323.119 94.740,322.987 94.705,322.667 94.705 C 322.346 94.705,322.215 94.740,322.375 94.782 M207.406 96.042 L 206.917 96.583 207.458 96.094 C 207.963 95.638,208.077 95.500,207.948 95.500 C 207.919 95.500,207.675 95.744,207.406 96.042 M314.240 99.375 L 313.750 99.917 314.292 99.427 C 314.797 98.971,314.910 98.833,314.781 98.833 C 314.752 98.833,314.509 99.077,314.240 99.375 M201.073 102.875 L 200.583 103.417 201.125 102.927 C 201.630 102.471,201.743 102.333,201.615 102.333 C 201.586 102.333,201.342 102.577,201.073 102.875 M309.578 103.875 L 308.583 104.917 309.625 103.922 C 310.198 103.375,310.667 102.906,310.667 102.880 C 310.667 102.757,310.502 102.907,309.578 103.875 M199.073 105.042 L 198.583 105.583 199.125 105.094 C 199.630 104.638,199.743 104.500,199.615 104.500 C 199.586 104.500,199.342 104.744,199.073 105.042 M76.744 105.542 C 76.700 105.656,76.684 121.987,76.708 141.833 L 76.751 177.917 76.792 141.709 L 76.833 105.502 88.375 105.458 L 99.917 105.414 88.370 105.374 C 79.256 105.342,76.806 105.377,76.744 105.542 M305.075 108.208 L 304.417 108.917 305.125 108.258 C 305.784 107.645,305.910 107.500,305.784 107.500 C 305.757 107.500,305.438 107.819,305.075 108.208 M67.577 108.708 L 66.750 109.583 67.625 108.756 C 68.106 108.301,68.500 107.908,68.500 107.881 C 68.500 107.757,68.346 107.895,67.577 108.708 M295.158 109.625 L 294.583 110.250 295.208 109.676 C 295.790 109.141,295.910 109.000,295.783 109.000 C 295.755 109.000,295.474 109.281,295.158 109.625 M194.740 109.708 L 194.250 110.250 194.792 109.760 C 195.297 109.304,195.410 109.167,195.281 109.167 C 195.252 109.167,195.009 109.410,194.740 109.708 M300.409 112.708 L 299.750 113.417 300.458 112.758 C 300.848 112.395,301.167 112.077,301.167 112.050 C 301.167 111.923,301.022 112.050,300.409 112.708 M289.658 114.792 L 289.083 115.417 289.708 114.842 C 290.290 114.308,290.410 114.167,290.283 114.167 C 290.255 114.167,289.974 114.448,289.658 114.792 M60.995 115.458 L 59.917 116.583 61.042 115.505 C 62.087 114.503,62.243 114.333,62.120 114.333 C 62.095 114.333,61.588 114.840,60.995 115.458 M295.240 117.708 L 294.750 118.250 295.292 117.760 C 295.797 117.304,295.910 117.167,295.781 117.167 C 295.752 117.167,295.509 117.410,295.240 117.708 M284.158 119.958 L 283.583 120.583 284.208 120.009 C 284.790 119.474,284.910 119.333,284.783 119.333 C 284.755 119.333,284.474 119.615,284.158 119.958 M290.744 122.042 L 289.917 122.917 290.792 122.090 C 291.273 121.635,291.667 121.241,291.667 121.215 C 291.667 121.090,291.512 121.229,290.744 122.042 M54.491 122.125 L 53.917 122.750 54.542 122.176 C 55.123 121.641,55.243 121.500,55.116 121.500 C 55.088 121.500,54.807 121.781,54.491 122.125 M182.073 123.375 L 181.583 123.917 182.125 123.427 C 182.630 122.971,182.743 122.833,182.615 122.833 C 182.586 122.833,182.342 123.077,182.073 123.375 M47.573 129.208 L 47.083 129.750 47.625 129.260 C 48.130 128.804,48.243 128.667,48.115 128.667 C 48.086 128.667,47.842 128.910,47.573 129.208 M175.824 130.125 L 175.250 130.750 175.875 130.176 C 176.457 129.641,176.577 129.500,176.449 129.500 C 176.422 129.500,176.140 129.781,175.824 130.125 M169.573 136.875 L 169.083 137.417 169.625 136.927 C 170.130 136.471,170.243 136.333,170.115 136.333 C 170.086 136.333,169.842 136.577,169.573 136.875 M256.740 145.708 L 256.250 146.250 256.792 145.760 C 257.297 145.304,257.410 145.167,257.281 145.167 C 257.252 145.167,257.009 145.410,256.740 145.708 M254.158 148.125 L 253.583 148.750 254.208 148.176 C 254.790 147.641,254.910 147.500,254.783 147.500 C 254.755 147.500,254.474 147.781,254.158 148.125 M158.906 148.375 L 158.417 148.917 158.958 148.427 C 159.256 148.158,159.500 147.914,159.500 147.885 C 159.500 147.757,159.362 147.870,158.906 148.375 M248.573 153.375 L 248.083 153.917 248.625 153.427 C 249.130 152.971,249.243 152.833,249.115 152.833 C 249.086 152.833,248.842 153.077,248.573 153.375 M132.166 166.458 L 120.750 177.917 132.208 166.500 C 138.510 160.222,143.667 155.065,143.667 155.042 C 143.667 154.925,142.779 155.807,132.166 166.458 M245.824 155.958 L 245.250 156.583 245.875 156.009 C 246.457 155.474,246.577 155.333,246.449 155.333 C 246.422 155.333,246.140 155.615,245.824 155.958 M243.158 158.458 L 242.583 159.083 243.208 158.509 C 243.790 157.974,243.910 157.833,243.783 157.833 C 243.755 157.833,243.474 158.115,243.158 158.458 M240.406 161.042 L 239.917 161.583 240.458 161.094 C 240.963 160.638,241.077 160.500,240.948 160.500 C 240.919 160.500,240.675 160.744,240.406 161.042 M106.750 183.624 C 175.199 183.738,222.461 183.738,222.391 183.625 C 222.348 183.556,190.574 183.519,151.782 183.541 C 112.989 183.564,92.725 183.601,106.750 183.624 M222.302 201.292 C 222.273 201.360,222.288 235.054,222.334 276.167 L 222.417 350.917 222.459 276.042 C 222.481 234.860,222.467 201.167,222.427 201.167 C 222.386 201.167,222.330 201.223,222.302 201.292 " stroke="none" fill="#fcdc6a" fill-rule="evenodd"></path><path id="path3" d="M231.461 75.287 C 231.761 75.325,232.211 75.324,232.461 75.286 C 232.712 75.248,232.467 75.217,231.917 75.218 C 231.367 75.219,231.162 75.250,231.461 75.287 M237.542 75.448 C 237.702 75.490,237.965 75.490,238.125 75.448 C 238.285 75.406,238.154 75.372,237.833 75.372 C 237.512 75.372,237.381 75.406,237.542 75.448 M244.875 75.615 C 245.035 75.657,245.298 75.657,245.458 75.615 C 245.619 75.573,245.487 75.539,245.167 75.539 C 244.846 75.539,244.715 75.573,244.875 75.615 M251.375 75.782 C 251.535 75.823,251.798 75.823,251.958 75.782 C 252.119 75.740,251.987 75.705,251.667 75.705 C 251.346 75.705,251.215 75.740,251.375 75.782 M257.128 75.954 C 257.428 75.991,257.878 75.990,258.128 75.952 C 258.378 75.914,258.133 75.884,257.583 75.885 C 257.033 75.886,256.828 75.917,257.128 75.954 M277.042 76.448 C 277.202 76.490,277.465 76.490,277.625 76.448 C 277.785 76.406,277.654 76.372,277.333 76.372 C 277.012 76.372,276.881 76.406,277.042 76.448 M282.627 76.618 C 282.834 76.658,283.134 76.656,283.294 76.615 C 283.453 76.573,283.283 76.540,282.917 76.542 C 282.550 76.544,282.420 76.578,282.627 76.618 M289.042 76.782 C 289.202 76.823,289.465 76.823,289.625 76.782 C 289.785 76.740,289.654 76.705,289.333 76.705 C 289.012 76.705,288.881 76.740,289.042 76.782 M295.542 76.948 C 295.702 76.990,295.965 76.990,296.125 76.948 C 296.285 76.906,296.154 76.872,295.833 76.872 C 295.512 76.872,295.381 76.906,295.542 76.948 M302.295 77.121 C 302.594 77.158,303.044 77.157,303.295 77.119 C 303.545 77.081,303.300 77.051,302.750 77.052 C 302.200 77.053,301.995 77.084,302.295 77.121 M307.795 77.287 C 308.094 77.325,308.544 77.324,308.795 77.286 C 309.045 77.248,308.800 77.217,308.250 77.218 C 307.700 77.219,307.495 77.250,307.795 77.287 M327.128 77.787 C 327.428 77.825,327.878 77.824,328.128 77.786 C 328.378 77.748,328.133 77.717,327.583 77.718 C 327.033 77.719,326.828 77.750,327.128 77.787 M311.242 102.208 L 310.583 102.917 311.292 102.258 C 311.950 101.645,312.077 101.500,311.950 101.500 C 311.923 101.500,311.605 101.819,311.242 102.208 M66.075 110.208 L 65.417 110.917 66.125 110.258 C 66.784 109.645,66.910 109.500,66.784 109.500 C 66.757 109.500,66.438 109.819,66.075 110.208 M301.573 111.542 L 301.083 112.083 301.625 111.594 C 302.130 111.138,302.243 111.000,302.115 111.000 C 302.086 111.000,301.842 111.244,301.573 111.542 M58.911 117.542 L 57.917 118.583 58.958 117.589 C 59.926 116.664,60.076 116.500,59.953 116.500 C 59.927 116.500,59.459 116.969,58.911 117.542 M292.242 120.542 L 291.583 121.250 292.292 120.591 C 292.950 119.978,293.077 119.833,292.950 119.833 C 292.923 119.833,292.605 120.152,292.242 120.542 M52.406 124.208 L 51.917 124.750 52.458 124.260 C 52.963 123.804,53.077 123.667,52.948 123.667 C 52.919 123.667,52.675 123.910,52.406 124.208 " stroke="none" fill="#fceaa8" fill-rule="evenodd"></path><path id="path4" d="M229.916 123.000 C 229.916 149.354,229.935 160.135,229.958 146.958 C 229.982 133.781,229.982 112.219,229.958 99.042 C 229.935 85.865,229.916 96.646,229.916 123.000 M233.295 75.287 C 233.594 75.325,234.044 75.324,234.295 75.286 C 234.545 75.248,234.300 75.217,233.750 75.218 C 233.200 75.219,232.995 75.250,233.295 75.287 M238.795 75.454 C 239.094 75.491,239.544 75.490,239.795 75.452 C 240.045 75.414,239.800 75.384,239.250 75.385 C 238.700 75.386,238.495 75.417,238.795 75.454 M258.961 75.954 C 259.261 75.991,259.711 75.990,259.961 75.952 C 260.212 75.914,259.967 75.884,259.417 75.885 C 258.867 75.886,258.662 75.917,258.961 75.954 M264.208 76.115 C 264.369 76.157,264.631 76.157,264.792 76.115 C 264.952 76.073,264.821 76.039,264.500 76.039 C 264.179 76.039,264.048 76.073,264.208 76.115 M270.708 76.282 C 270.869 76.323,271.131 76.323,271.292 76.282 C 271.452 76.240,271.321 76.205,271.000 76.205 C 270.679 76.205,270.548 76.240,270.708 76.282 M278.042 76.448 C 278.202 76.490,278.465 76.490,278.625 76.448 C 278.785 76.406,278.654 76.372,278.333 76.372 C 278.012 76.372,277.881 76.406,278.042 76.448 M283.961 76.621 C 284.261 76.658,284.711 76.657,284.961 76.619 C 285.212 76.581,284.967 76.551,284.417 76.552 C 283.867 76.553,283.662 76.584,283.961 76.621 M309.628 77.287 C 309.928 77.325,310.378 77.324,310.628 77.286 C 310.878 77.248,310.633 77.217,310.083 77.218 C 309.533 77.219,309.328 77.250,309.628 77.287 M315.708 77.448 C 315.869 77.490,316.131 77.490,316.292 77.448 C 316.452 77.406,316.321 77.372,316.000 77.372 C 315.679 77.372,315.548 77.406,315.708 77.448 M322.208 77.615 C 322.369 77.657,322.631 77.657,322.792 77.615 C 322.952 77.573,322.821 77.539,322.500 77.539 C 322.179 77.539,322.048 77.573,322.208 77.615 M310.158 95.625 L 309.583 96.250 310.208 95.676 C 310.790 95.141,310.910 95.000,310.783 95.000 C 310.755 95.000,310.474 95.281,310.158 95.625 M302.742 110.375 L 302.083 111.083 302.792 110.425 C 303.450 109.812,303.577 109.667,303.450 109.667 C 303.423 109.667,303.105 109.985,302.742 110.375 M64.073 112.208 L 63.583 112.750 64.125 112.260 C 64.630 111.804,64.743 111.667,64.615 111.667 C 64.586 111.667,64.342 111.910,64.073 112.208 M57.324 119.125 L 56.750 119.750 57.375 119.176 C 57.957 118.641,58.077 118.500,57.949 118.500 C 57.922 118.500,57.640 118.781,57.324 119.125 M50.406 126.208 L 49.917 126.750 50.458 126.260 C 50.963 125.804,51.077 125.667,50.948 125.667 C 50.919 125.667,50.675 125.910,50.406 126.208 M269.073 134.208 L 268.583 134.750 269.125 134.260 C 269.630 133.804,269.743 133.667,269.615 133.667 C 269.586 133.667,269.342 133.910,269.073 134.208 " stroke="none" fill="#fcf4cc" fill-rule="evenodd"></path></g></svg>